#tb 0: 1/25
#media_type 0: video
#codec_id 0: rawvideo
#dimensions 0: 800x872
#sar 0: 0/1
0,          0,          0,        1,  2092800, 0xce6d9094
0,          1,          1,        1,  2092800, 0x599f9867
0,          2,          2,        1,  2092800, 0x6d068c57
0,          3,          3,        1,  2092800, 0x90e4d43c
0,          4,          4,        1,  2092800, 0x0e2c5d62
0,          5,          5,        1,  2092800, 0x4d6c0288
0,          6,          6,        1,  2092800, 0x6334cd3f
0,          7,          7,        1,  2092800, 0xd76d4407
0,          8,          8,        1,  2092800, 0x9bbc1e0b
0,          9,          9,        1,  2092800, 0xad3851b1
0,         10,         10,        1,  2092800, 0x37876792
0,         11,         11,        1,  2092800, 0x1f55a6b6
0,         12,         12,        1,  2092800, 0x94b37de2
0,         13,         13,        1,  2092800, 0x35e81d80
0,         14,         14,        1,  2092800, 0xa6c0de46
0,         15,         15,        1,  2092800, 0xb1a64e7a
0,         16,         16,        1,  2092800, 0xc02796a7
0,         17,         17,        1,  2092800, 0x30ab91c4
0,         18,         18,        1,  2092800, 0xe480a19f
0,         19,         19,        1,  2092800, 0x2818666d
